<?xml version="1.0" encoding="utf-8"?>
<!DOCTYPE svg PUBLIC "-//W3C//DTD SVG 1.1//EN" "http://www.w3.org/Graphics/SVG/1.1/DTD/svg11.dtd">
<svg version="1.1" id="Layer_1" xmlns="http://www.w3.org/2000/svg" xmlns:xlink="http://www.w3.org/1999/xlink" x="0px" y="0px" width="85px" height="85px" viewBox="0 0 80 80" enable-background="new 0 0 80 80" xml:space="preserve">
	<g>
		<path fill="#FFFFFF" d="M40,0c22.091,0,40,17.909,40,40S62.091,80,40,80S0,62.091,0,40S17.909,0,40,0z"/>
	</g>
	<!-- <g>
		<path fill="#8cc9f0" d="M50.378,32.576c0,1.005-0.815,1.821-1.821,1.821c-1.005,0-1.82-0.816-1.82-1.821
			c0-1.005,0.815-1.821,1.82-1.821C49.563,30.755,50.378,31.571,50.378,32.576z M54.627,27.113c0-0.341-0.304-0.607-0.646-0.607
			c-6.601,0-10.223,1.518-14.964,6.241c-1.081,1.1-2.2,2.352-3.338,3.699l-7.188,0.379c-0.19,0.019-0.379,0.133-0.493,0.304
			l-4.249,7.284c-0.133,0.228-0.095,0.53,0.095,0.739l1.214,1.215c0.114,0.113,0.285,0.17,0.437,0.17c0.057,0,0.114,0,0.17-0.02
			l5.235-1.611l5.33,5.33l-1.612,5.236c-0.057,0.209,0,0.437,0.152,0.606l1.214,1.214c0.133,0.114,0.284,0.171,0.436,0.171
			c0.114,0,0.208-0.021,0.304-0.075l7.283-4.25c0.171-0.113,0.284-0.304,0.305-0.492l0.379-7.19c1.347-1.138,2.599-2.257,3.699-3.339
			C52.882,37.603,54.627,33.411,54.627,27.113z"/>
	</g> -->

  <!-- <g transform="scale(0.10) translate(130,100)">

		<path fill="#8cc9f0" d="M362.52,283.124c13.229,0.369,55.903-5.18,86.724-23.296c-61.625-29.739-119.02-104.774-119.02-104.774 s30.673,4.197,69.838-16.82c-73.28-28.017-144.054-126.775-144.054-126.775s-70.772,98.758-144.07,126.775 c39.181,21.017,69.854,16.82,69.854,16.82s-57.411,75.034-119.02,104.774c30.805,18.115,73.494,23.664,86.724,23.296 C124.283,308.781,65.166,357.995,0,385.225c37.854,23.321,117.79,44.731,199.727,51.92l6.984,63.395h98.594l6.984-63.395 c81.937-7.189,161.857-28.599,199.711-51.92C446.85,357.995,387.717,308.781,362.52,283.124z"/>
	</g> -->
<!-- logo: https://www.svgrepo.com/ -->
  	<!-- <g transform="scale(2.00) translate(7,9)">
		<path fill="#8cc9f0" d="M7 8H4C2.9 8 2 7.1 2 6V4C2 2.9 2.9 2 4 2H7C8.1 2 9 2.9 9 4V6C9 7.1 8.1 8 7 8Z"/> 
		<path fill="#8cc9f0" d="M20.8 7H17.2C16.54 7 16 6.45999 16 5.79999V4.20001C16 3.54001 16.54 3 17.2 3H20.8C21.46 3 22 3.54001 22 4.20001V5.79999C22 6.45999 21.46 7 20.8 7Z"/> 
		<path fill="#8cc9f0" d="M20.8 14.5H17.2C16.54 14.5 16 13.96 16 13.3V11.7C16 11.04 16.54 10.5 17.2 10.5H20.8C21.46 10.5 22 11.04 22 11.7V13.3C22 13.96 21.46 14.5 20.8 14.5Z" /> 
		<path fill="#8cc9f0" opacity="0.37" d="M16 13.25C16.41 13.25 16.75 12.91 16.75 12.5C16.75 12.09 16.41 11.75 16 11.75H13.25V5.75H16C16.41 5.75 16.75 5.41 16.75 5C16.75 4.59 16.41 4.25 16 4.25H9C8.59 4.25 8.25 4.59 8.25 5C8.25 5.41 8.59 5.75 9 5.75H11.75V18C11.75 19.52 12.98 20.75 14.5 20.75H16C16.41 20.75 16.75 20.41 16.75 20C16.75 19.59 16.41 19.25 16 19.25H14.5C13.81 19.25 13.25 18.69 13.25 18V13.25H16Z"/>
		<path fill="#8cc9f0" d="M20.8 22H17.2C16.54 22 16 21.46 16 20.8V19.2C16 18.54 16.54 18 17.2 18H20.8C21.46 18 22 18.54 22 19.2V20.8C22 21.46 21.46 22 20.8 22Z"/>

	</g> -->


  	<g transform="scale(0.1) translate(420,300)">
		<path fill="#8cc9f0" d="m 0,169.14 c -44.818,0 -81.28,-36.462 -81.28,-81.28 0,-44.818 36.462,-81.28 81.28,-81.28 44.817,0 81.279,36.462 81.279,81.28 0,44.818 -36.462,81.28 -81.279,81.28 m -149.2,141.43 c -24.587,0 -44.59,-20.003 -44.59,-44.59 0,-24.587 20.003,-44.59 44.59,-44.59 24.587,0 44.59,20.003 44.59,44.59 0,24.587 -20.003,44.59 -44.59,44.59 m -83.91,-398.5 c 0,-29.5 24,-53.5 53.5,-53.5 29.494,0 53.49,24 53.49,53.5 0,29.494 -23.996,53.49 -53.49,53.49 -29.5,0 -53.5,-23.996 -53.5,-53.49 m 412.099,37 c 17.364,0 31.49,14.126 31.49,31.49 0,17.369 -14.126,31.5 -31.49,31.5 -17.369,0 -31.5,-14.131 -31.5,-31.5 0,-17.364 14.131,-31.49 31.5,-31.49 m -44.46,73.915 c 11.207,11.739 26.989,19.075 44.46,19.075 33.907,0 61.49,-27.589 61.49,-61.5 0,-33.906 -27.583,-61.49 -61.49,-61.49 -33.911,0 -61.5,27.584 -61.5,61.49 0,5.628 0.776,11.076 2.198,16.259 L 87.091,18.672 C 66.687,-6.959 35.231,-23.42 0,-23.42 c -26.243,0 -50.388,9.137 -69.436,24.388 l -44.024,-38.046 c 10.859,-14.093 17.34,-31.725 17.34,-50.852 0,-46.042 -37.453,-83.5 -83.49,-83.5 -46.042,0 -83.5,37.458 -83.5,83.5 0,46.036 37.458,83.49 83.5,83.49 16.012,0 30.98,-4.54 43.702,-12.388 l 45.751,39.538 c -13.281,18.326 -21.123,40.838 -21.123,65.15 0,27.971 10.377,53.562 27.478,73.133 l -30.6,39.04 c -10.397,-5.508 -22.236,-8.643 -34.798,-8.643 -41.129,0 -74.59,33.461 -74.59,74.59 0,41.129 33.461,74.59 74.59,74.59 41.129,0 74.59,-33.461 74.59,-74.59 0,-17.745 -6.24,-34.055 -16.625,-46.873 l 30.054,-38.343 c 17.567,11.607 38.596,18.376 61.181,18.376 61.359,0 111.279,-49.92 111.279,-111.28 0,-15.382 -3.138,-30.045 -8.806,-43.383 z"/> 
	</g>
  	<g transform="scale(0.1) translate(580,530)">
		<path fill="#8cc9f0" d="M 0,57.45 C -15.842,57.45 -28.73,44.562 -28.73,28.72 -28.73,12.884 -15.842,0 0,0 15.836,0 28.72,12.884 28.72,28.72 28.72,44.562 15.836,57.45 0,57.45 M 0,-30 c -32.384,0 -58.73,26.342 -58.73,58.72 0,32.384 26.346,58.73 58.73,58.73 32.378,0 58.72,-26.346 58.72,-58.73 C 58.72,-3.658 32.378,-30 0,-30" />
	</g>


</svg>


